
<svg width="64" height="64" viewBox="0 0 64 64" fill="none" xmlns="http://www.w3.org/2000/svg">
<path fill-rule="evenodd" clip-rule="evenodd" d="M44.8 57.6001C53.6366 57.6001 60.8 50.4367 60.8 41.6001C60.8 32.7635 53.6366 25.6001 44.8 25.6001C35.9634 25.6001 28.8 32.7635 28.8 41.6001C28.8 50.4367 35.9634 57.6001 44.8 57.6001Z" fill="#FF91A0"/>
<mask id="mask0_302_172" style="mask-type:luminance" maskUnits="userSpaceOnUse" x="10" y="9" width="44" height="44">
<path d="M53.3333 9.6001H10.6667V52.2668H53.3333V9.6001Z" fill="white"/>
</mask>
<g mask="url(#mask0_302_172)">
<path d="M47.9999 25.6002C48.023 22.9255 47.3753 20.2878 46.1158 17.9281C44.8564 15.5684 43.0256 13.5621 40.7907 12.0927C38.5558 10.6232 35.9882 9.73741 33.3226 9.51639C30.657 9.29538 27.9786 9.74613 25.5322 10.8275C23.0857 11.9088 20.9494 13.5861 19.3186 15.7062C17.6877 17.8262 16.6144 20.3213 16.1967 22.9632C15.7791 25.6051 16.0304 28.3095 16.9277 30.8293C17.825 33.349 19.3396 35.6036 21.3332 37.3869V40.7469V46.7912H25.4754C25.731 48.3323 26.5253 49.7328 27.7169 50.7429C28.9085 51.7531 30.4199 52.3076 31.9821 52.3076C33.5442 52.3076 35.0557 51.7531 36.2473 50.7429C37.4388 49.7328 38.2332 48.3323 38.4887 46.7912H43.3066V40.1424V37.2802C46.3129 34.1341 47.9935 29.9518 47.9999 25.6002ZM18.6666 25.6002C18.6666 22.064 20.0713 18.6726 22.5717 16.172C25.0722 13.6715 28.4636 12.2669 31.9999 12.2669C35.5361 12.2669 38.9275 13.6715 41.4279 16.172C43.9284 18.6726 45.3332 22.064 45.3332 25.6002C45.339 27.485 44.9659 29.3517 44.2359 31.0895C43.506 32.8272 42.4342 34.4004 41.0843 35.7157L40.6932 36.089V38.0624H23.9109V36.2669L23.1109 35.3957C21.7235 34.1668 20.6107 32.6594 19.8449 30.9716C19.0791 29.2837 18.6775 27.4535 18.6666 25.6002ZM31.9999 49.6179C31.1505 49.6175 30.3242 49.3417 29.6447 48.8322C28.9652 48.3225 28.4692 47.6065 28.2309 46.7912H35.7866C35.5423 47.6065 35.0422 48.3214 34.3603 48.8305C33.6784 49.3395 32.8508 49.6156 31.9999 49.6179ZM23.9643 44.1246V40.7469H40.6399V44.1246H23.9643Z" fill="#03314B"/>
<path d="M39.5909 26.7557H42.2576C42.2658 25.2689 41.974 23.7956 41.3998 22.4241C40.8255 21.0526 39.9805 19.811 38.9154 18.7735C37.8668 17.7207 36.6198 16.8864 35.2466 16.3188C33.8734 15.7512 32.4013 15.4616 30.9154 15.4669V18.1335C33.2131 18.1314 35.4182 19.039 37.0487 20.6579C37.8541 21.4561 38.4933 22.406 38.9297 23.4526C39.3661 24.4992 39.5908 25.6219 39.5909 26.7557Z" fill="#03314B"/>
<path d="M12.5168 9.59937L10.885 11.7085L15.7077 15.4399L17.3395 13.3309L12.5168 9.59937Z" fill="#03314B"/>
<path d="M14.7378 18.1689H10.6667V20.8356H14.7378V18.1689Z" fill="#03314B"/>
<path d="M51.4747 9.59668L46.6519 13.3281L48.2837 15.4373L53.1065 11.7057L51.4747 9.59668Z" fill="#03314B"/>
<path d="M53.3332 18.1689H49.2622V20.8356H53.3332V18.1689Z" fill="#03314B"/>
</g>
</svg>
