
<svg xmlns="http://www.w3.org/2000/svg" xmlns:xlink="http://www.w3.org/1999/xlink" version="1.1" x="0px" y="0px" viewBox="0 0 100 125" style="enable-background:new 0 0 100 100;" xml:space="preserve"><path d="M50.2,79.1C34.1,79.1,21,66,21,49.9s13.1-29.2,29.2-29.2c16.1,0,29.2,13.1,29.2,29.2S66.4,79.1,50.2,79.1z M50.2,24.7  C36.4,24.7,25,36,25,49.9s11.3,25.2,25.2,25.2s25.2-11.3,25.2-25.2S64.1,24.7,50.2,24.7z"/><circle cx="50.2" cy="27.5" r="1.5"/><circle cx="39" cy="30.5" r="1.5"/><circle cx="30.7" cy="38.7" r="1.5"/><circle cx="27.7" cy="50" r="1.5"/><circle cx="30.7" cy="61.3" r="1.5"/><circle cx="39" cy="69.5" r="1.5"/><circle cx="50.2" cy="72.5" r="1.5"/><circle cx="61.5" cy="69.5" r="1.5"/><circle cx="69.8" cy="61.3" r="1.5"/><circle cx="72.8" cy="50" r="1.5"/><circle cx="69.8" cy="38.7" r="1.5"/><circle cx="61.5" cy="30.5" r="1.5"/><path d="M51.3,48.2C51.3,48.2,51.3,48.2,51.3,48.2c0.2-0.9,0.4-1.8,0.5-2.6c0.2-1.7-0.2-3.4-0.3-5.1c-0.1-1.7-0.3-3.4-0.5-5.1  c-0.2-1.7-0.4-3.4-0.6-5.1h-0.3c-0.2,1.7-0.4,3.4-0.6,5.1c-0.2,1.7-0.3,3.4-0.5,5.1c-0.1,1.7-0.5,3.4-0.3,5.1  c0.1,0.9,0.2,1.7,0.5,2.6c0,0,0,0,0,0.1c-0.3,0.2-0.5,0.4-0.7,0.7c0,0-0.1,0-0.1,0c-0.6-0.2-1.3-0.4-1.9-0.4  c-1.3-0.2-2.5,0.2-3.8,0.3c-1.3,0.1-2.5,0.3-3.8,0.5c-1.3,0.2-2.5,0.4-3.8,0.6V50c1.3,0.2,2.5,0.4,3.8,0.6c1.3,0.2,2.5,0.3,3.8,0.5  c1.3,0.1,2.5,0.5,3.8,0.3c0.6-0.1,1.3-0.2,1.9-0.4c0,0,0,0,0,0c0.3,0.7,1.1,1.2,1.9,1.2c1.2,0,2.1-0.9,2.1-2.1  C52.4,49.2,51.9,48.6,51.3,48.2z"/></svg>