
<svg xmlns="http://www.w3.org/2000/svg" fill="blue" xmlns:xlink="http://www.w3.org/1999/xlink" version="1.1" x="0px" y="0px" viewBox="0 0 100 125" style="enable-background:new 0 0 100 100;" xml:space="preserve"><path d="M15.01,40l6.16,29.36c0,0.03,0.01,0.06,0.02,0.1l1.47,6.99c0.04,0.17,0.1,0.32,0.19,0.46c0.01,0.02,0.03,0.03,0.04,0.05  c0.09,0.12,0.18,0.23,0.3,0.31c0.04,0.03,0.1,0.05,0.15,0.08c0.1,0.06,0.2,0.11,0.32,0.14c0.03,0.01,0.05,0.03,0.07,0.03  c8.7,1.88,17.46,2.82,26.24,2.82c8.77,0,17.55-0.94,26.28-2.82c0.03-0.01,0.05-0.02,0.07-0.03c0.11-0.03,0.22-0.08,0.32-0.14  c0.05-0.03,0.1-0.05,0.15-0.08c0.11-0.08,0.2-0.18,0.28-0.29c0.02-0.03,0.05-0.04,0.06-0.07c0.09-0.14,0.15-0.29,0.19-0.46  l0.01-0.03c0,0,0,0,0,0l1.46-6.97c0.01-0.03,0.01-0.06,0.02-0.09L84.96,40c1.7-0.33,3.27-1.33,4.2-2.95c0.83-1.43,1.05-3.1,0.62-4.7  c-0.43-1.6-1.45-2.94-2.89-3.76c-1.43-0.83-3.1-1.05-4.7-0.62c-1.6,0.43-2.94,1.45-3.77,2.89c-0.83,1.43-1.05,3.1-0.62,4.7  c0.03,0.11,0.09,0.21,0.12,0.32L61.74,47.71l-7.63-17.26c1.27-1.14,2.08-2.77,2.08-4.6c0-3.42-2.78-6.2-6.2-6.2  c-3.42,0-6.2,2.78-6.2,6.2c0,1.83,0.81,3.46,2.08,4.6l-7.63,17.26l-16.2-11.83c0.54-1.65,0.4-3.48-0.49-5.03  c-0.83-1.43-2.17-2.45-3.77-2.88c-1.6-0.43-3.27-0.2-4.69,0.63c-2.95,1.69-3.97,5.49-2.27,8.47C11.73,38.63,13.28,39.66,15.01,40z   M74.78,74.96c-16.48,3.43-33.15,3.43-49.58,0l-0.85-4.04c8.5,1.74,17.05,2.65,25.62,2.65c8.56,0,17.13-0.91,25.66-2.65L74.78,74.96  z M80.85,32.25c0.46-0.79,1.19-1.35,2.07-1.59c0.29-0.08,0.59-0.12,0.89-0.12c0.59,0,1.17,0.15,1.7,0.46  c0.79,0.45,1.35,1.19,1.59,2.07c0.24,0.88,0.11,1.8-0.34,2.58c-0.46,0.79-1.19,1.35-2.07,1.59c-0.88,0.23-1.8,0.11-2.58-0.34  c-0.79-0.46-1.35-1.19-1.59-2.07C80.27,33.96,80.39,33.04,80.85,32.25z M49.99,22.44c1.88,0,3.41,1.53,3.41,3.41  c0,1.88-1.53,3.41-3.41,3.41c-1.88,0-3.41-1.53-3.41-3.41C46.59,23.97,48.12,22.44,49.99,22.44z M38,50.99  c0.03,0.02,0.06,0.01,0.09,0.03c0.06,0.04,0.1,0.09,0.17,0.12c0.18,0.08,0.37,0.12,0.56,0.12c0.24,0,0.48-0.08,0.69-0.2  c0.07-0.04,0.12-0.1,0.18-0.15c0.09-0.07,0.19-0.12,0.26-0.22c0.04-0.06,0.05-0.12,0.08-0.18c0.02-0.03,0.05-0.04,0.07-0.08  l8.23-18.63c0.53,0.15,1.08,0.25,1.66,0.25c0.58,0,1.13-0.11,1.66-0.25l8.23,18.63c0.01,0.03,0.05,0.05,0.07,0.08  c0.03,0.06,0.04,0.13,0.08,0.18c0.07,0.1,0.17,0.15,0.26,0.22c0.06,0.05,0.11,0.11,0.18,0.15c0.21,0.12,0.45,0.2,0.69,0.2  c0.19,0,0.38-0.04,0.56-0.12c0.07-0.03,0.11-0.08,0.17-0.12c0.03-0.02,0.06-0.01,0.09-0.03l17.4-12.71c0.39,0.4,0.82,0.76,1.31,1.05  c0.46,0.27,0.94,0.45,1.43,0.59l-5.88,28.04c-17.46,3.73-35.12,3.73-52.52,0l-5.88-28.03c0.5-0.14,0.98-0.34,1.45-0.61  c0.49-0.29,0.93-0.64,1.32-1.03L38,50.99z M14.49,31.01c0.53-0.31,1.11-0.46,1.7-0.46c0.29,0,0.59,0.04,0.88,0.11  c0.88,0.23,1.62,0.8,2.07,1.58c0.61,1.06,0.61,2.37,0,3.42c-0.3,0.52-0.73,0.93-1.25,1.24c-1.63,0.94-3.75,0.32-4.65-1.23  C12.31,34.03,12.87,31.94,14.49,31.01z"/></svg>