
<svg width="64" height="64" viewBox="0 0 64 64" fill="none" xmlns="http://www.w3.org/2000/svg">
<path fill-rule="evenodd" clip-rule="evenodd" d="M48 60.8001C56.8366 60.8001 64 53.6366 64 44.8C64 35.9635 56.8366 28.8 48 28.8C39.1634 28.8 32 35.9635 32 44.8C32 53.6366 39.1634 60.8001 48 60.8001Z" fill="#FF91A0"/>
<path d="M25.9556 21.6888H18.1333V23.8222H25.9556V21.6888Z" fill="#03314B"/>
<path fill-rule="evenodd" clip-rule="evenodd" d="M10.3111 22.9333H14.2222L14.7556 23.8222H17.0667L12.8 15.4666H11.7333L7.46667 23.8222H9.77778L10.3111 22.9333ZM12.2667 19.0222L13.1556 20.8H11.3778L12.2667 19.0222Z" fill="#03314B"/>
<path fill-rule="evenodd" clip-rule="evenodd" d="M53.1556 32.3555V27.2C53.1556 23.5694 51.7133 20.0876 49.1462 17.5204C46.579 14.9533 43.0972 13.5111 39.4667 13.5111C37.4266 13.5181 35.4168 14.0053 33.6 14.9333V8.17773H0V45.6888H33.6V17.2444C35.3702 16.1794 37.4009 15.6256 39.4667 15.6444C40.9848 15.6421 42.4885 15.9394 43.8916 16.5192C45.2946 17.0991 46.5694 17.9502 47.6429 19.0237C48.7164 20.0972 49.5675 21.372 50.1474 22.7751C50.7273 24.1781 51.0246 25.6818 51.0222 27.2V32.3555H45.3333V45.8666H52.8C53.6872 45.8666 54.5656 45.6919 55.3852 45.3524C56.2049 45.0129 56.9496 44.5153 57.5769 43.888C58.2042 43.2607 58.7018 42.5159 59.0413 41.6963C59.3808 40.8767 59.5556 39.9982 59.5556 39.1111C59.5165 37.3918 58.84 35.7485 57.6573 34.5001C56.4746 33.2517 54.8702 32.4873 53.1556 32.3555ZM25.7778 43.7333C24.5519 43.7333 23.3762 43.2463 22.5094 42.3795C21.6425 41.5126 21.1556 40.337 21.1556 39.1111C21.1556 37.8852 21.6425 36.7095 22.5094 35.8427C23.3762 34.9758 24.5519 34.4888 25.7778 34.4888V43.7333ZM31.1111 43.7333H27.9111V34.4888H31.1111V43.7333ZM31.2889 32.3555H27.9111V27.3777C27.9015 25.8584 28.1953 24.3525 28.7753 22.9482C29.3553 21.5439 30.2099 20.2696 31.2889 19.2V32.3555ZM31.4667 16.1777C29.7377 17.4443 28.3358 19.105 27.3774 21.022C26.4189 22.9389 25.9315 25.0569 25.9556 27.2V28.4444H7.46667V30.5777H25.9556V32.3555C24.7919 32.3584 23.6503 32.6733 22.6497 33.2674C21.6492 33.8615 20.8262 34.713 20.2667 35.7333H7.46667V37.8666H19.3778C19.3778 38.2222 19.2 38.7555 19.2 39.1111C19.2196 40.815 19.8505 42.4553 20.9778 43.7333H2.13333V10.3111H31.4667V16.1777ZM51.0222 43.7333H47.4667V34.4888H51.0222V43.7333ZM53.1556 43.5555V34.4888C54.298 34.5926 55.3577 35.1289 56.1178 35.9881C56.8778 36.8473 57.2809 37.9645 57.2444 39.1111C57.274 40.238 56.8637 41.3321 56.1005 42.1617C55.3372 42.9913 54.281 43.4912 53.1556 43.5555Z" fill="#03314B"/>
</svg>
