<svg viewBox="0 0 48 48" fill="none" xmlns="http://www.w3.org/2000/svg" className="w-12 text-blue"><path d="M25.88 35.2C25.6457 33.689 25.6457 32.151 25.88 30.64C28.0389 30.5358 30.1435 29.9281 32.0257 28.8654C33.9079 27.8028 35.5155 26.3147 36.72 24.52C38.1575 22.2072 39.1005 19.6218 39.4894 16.9266C39.8784 14.2314 39.7049 11.4849 38.98 8.86C38.3382 6.0944 37.3363 3.42496 36 0.92L35.58 0L34.54 0.16C29.3249 1.16362 24.6142 3.93208 21.2 8C17.6135 6.54688 13.7373 5.95107 9.88 6.26L8.76 6.38L8.56 7.5C8.56 7.92 6.72 17.86 9.92 23.1C11.3015 25.4819 13.4958 27.2856 16.1 28.18C17.0995 28.5157 18.1457 28.6912 19.2 28.7C19.8755 28.688 20.5471 28.594 21.2 28.42C21.704 28.983 22.2525 29.5047 22.84 29.98C22.5975 31.7182 22.5975 33.4818 22.84 35.22C18.5007 35.3733 14.2381 36.4081 10.3115 38.2614C6.38491 40.1146 2.87656 42.7476 0 46L2.26 48C4.97247 44.9031 8.31528 42.4215 12.0646 40.7213C15.8139 39.0211 19.8832 38.1416 24 38.1416C28.1168 38.1416 32.1861 39.0211 35.9354 40.7213C39.6847 42.4215 43.0275 44.9031 45.74 48L48 46C45.2085 42.8287 41.8166 40.2416 38.02 38.388C34.2235 36.5343 30.0974 35.4508 25.88 35.2ZM12.48 21.5C10.48 18.4 10.9 12.34 11.32 9.16C14.1431 9.05607 16.9585 9.51849 19.6 10.52C18.2701 13.1408 17.5845 16.0411 17.6 18.98C17.575 21.3118 18.1464 23.6112 19.26 25.66C17.8652 25.6181 16.5057 25.2121 15.3163 24.4824C14.127 23.7526 13.1492 22.7245 12.48 21.5ZM20.64 18.98C20.64 7.52 30.64 4.14 33.92 3.34C35.32 6.38 38.94 15.86 34.18 22.82C33.3142 24.1553 32.1573 25.2773 30.796 26.1016C29.4348 26.926 27.9045 27.4315 26.32 27.58C27.4229 22.8873 29.0463 18.3324 31.16 14L28.44 12.74C26.3284 17.1254 24.673 21.7162 23.5 26.44C21.6368 24.4049 20.6148 21.739 20.64 18.98Z" fill="currentColor"></path></svg>