
<svg width="64" height="64" viewBox="0 0 64 64" fill="none" xmlns="http://www.w3.org/2000/svg">
<path fill-rule="evenodd" clip-rule="evenodd" d="M44.8 57.6001C53.6366 57.6001 60.8 50.4367 60.8 41.6001C60.8 32.7635 53.6366 25.6001 44.8 25.6001C35.9634 25.6001 28.8 32.7635 28.8 41.6001C28.8 50.4367 35.9634 57.6001 44.8 57.6001Z" fill="#FF91A0"/>
<path fill-rule="evenodd" clip-rule="evenodd" d="M31.5556 39.1112C33.9131 39.1112 36.174 38.1747 37.8409 36.5077C39.5079 34.8407 40.4445 32.5798 40.4445 30.2223V19.5556C40.4445 17.1982 39.5079 14.9373 37.8409 13.2703C36.174 11.6033 33.9131 10.6667 31.5556 10.6667C29.1981 10.6667 26.9372 11.6033 25.2702 13.2703C23.6032 14.9373 22.6667 17.1982 22.6667 19.5556V30.2223C22.6667 32.5798 23.6032 34.8407 25.2702 36.5077C26.9372 38.1747 29.1981 39.1112 31.5556 39.1112ZM25.3333 19.5556C25.3333 17.9054 25.9889 16.3227 27.1558 15.1558C28.3227 13.989 29.9054 13.3334 31.5556 13.3334C33.2058 13.3334 34.7885 13.989 35.9553 15.1558C37.1222 16.3227 37.7778 17.9054 37.7778 19.5556V30.2223C37.7778 31.8725 37.1222 33.4552 35.9553 34.6221C34.7885 35.789 33.2058 36.4446 31.5556 36.4446C29.9054 36.4446 28.3227 35.789 27.1558 34.6221C25.9889 33.4552 25.3333 31.8725 25.3333 30.2223V19.5556Z" fill="#03314B"/>
<path fill-rule="evenodd" clip-rule="evenodd" d="M44.4445 24.4446V30.6668C44.4445 34.0851 43.0865 37.3634 40.6694 39.7806C38.2523 42.1978 34.974 43.5556 31.5556 43.5556C28.1373 43.5556 24.8589 42.1978 22.4417 39.7806C20.0246 37.3634 18.6667 34.0851 18.6667 30.6668V24.4446H16V30.6668C15.9938 34.5691 17.4513 38.3318 20.0844 41.2118C22.7175 44.0918 26.335 45.8797 30.2223 46.2223V50.6668H22.6667V53.3334H40.4445V50.6668H32.889V46.2223C36.7639 45.8808 40.3713 44.103 43.0028 41.2381C45.6341 38.3731 47.0995 34.6279 47.1111 30.7379V24.4446H44.4445Z" fill="#03314B"/>
<path d="M35.1111 20.8889H28V23.5556H35.1111V20.8889Z" fill="#03314B"/>
<path d="M35.1111 26.2222H28V28.8888H35.1111V26.2222Z" fill="#03314B"/>
</svg>
